# xmcd CD database file
#
# Track frame offsets:
#	150
#	12225
#	39713
#	71266
#	91606
#	107987
#	135336
#	163889
#	179653
#	206528
#
# Disc length: 3050 seconds
#
# Revision: 0
# Processed by: cddbd v1.5.2PL0 Copyright (c) Steve Scherf et al.
# Submitted via: CDex 1.70beta2
#
DISCID=820be80a
DTITLE=Karl Jannuska - Streaming
DYEAR=2010
DGENRE=Jazz
TTITLE0=As Far as the I Can See
TTITLE1=Nothingness
TTITLE2=Sundogs
TTITLE3=Gold Star
TTITLE4=Streaming
TTITLE5=Timbuktu
TTITLE6=A Whiter Christmas
TTITLE7=Snow In May
TTITLE8=Bittersweet
TTITLE9=Silent
EXTD=YEAR: 2010
EXTT0=
EXTT1=
EXTT2=
EXTT3=
EXTT4=
EXTT5=
EXTT6=
EXTT7=
EXTT8=
EXTT9=
PLAYORDER=
